<?xml version="1.0" encoding="UTF-8" standalone="no"?>
<svg
   xmlns:dc="http://purl.org/dc/elements/1.1/"
   xmlns:cc="http://creativecommons.org/ns#"
   xmlns:rdf="http://www.w3.org/1999/02/22-rdf-syntax-ns#"
   xmlns:svg="http://www.w3.org/2000/svg"
   xmlns="http://www.w3.org/2000/svg"
   xmlns:sodipodi="http://sodipodi.sourceforge.net/DTD/sodipodi-0.dtd"
   xmlns:inkscape="http://www.inkscape.org/namespaces/inkscape"
   version="1.1"
   id="Layer_1"
   x="0px"
   y="0px"
   viewBox="0 0 34.657082 34.657066"
   xml:space="preserve"
   sodipodi:docname="eraser_scaled.svg"
   width="34.657082"
   height="34.657066"
   inkscape:version="1.0 (9f2f71dc58, 2020-08-02)"><metadata
   id="metadata226"><rdf:RDF><cc:Work
       rdf:about=""><dc:format>image/svg+xml</dc:format><dc:type
         rdf:resource="http://purl.org/dc/dcmitype/StillImage" /><dc:title></dc:title></cc:Work></rdf:RDF></metadata><defs
   id="defs224" /><sodipodi:namedview
   pagecolor="#ffffff"
   bordercolor="#666666"
   borderopacity="1"
   objecttolerance="10"
   gridtolerance="10"
   guidetolerance="10"
   inkscape:pageopacity="0"
   inkscape:pageshadow="2"
   inkscape:window-width="959"
   inkscape:window-height="1028"
   id="namedview222"
   showgrid="false"
   inkscape:zoom="2.9547466"
   inkscape:cx="50.658541"
   inkscape:cy="59.866365"
   inkscape:window-x="960"
   inkscape:window-y="25"
   inkscape:window-maximized="0"
   inkscape:current-layer="g187" />
<g
   id="g189"
   style="opacity:1"
   transform="matrix(0.06768958,0,0,0.06768958,1.6922395e-5,0)">
	<g
   id="g187">
		<path
   d="M 509.607,173.926 338.073,2.393 C 336.542,0.861 334.463,0 332.297,0 330.131,0 328.052,0.861 326.52,2.393 L 87.126,241.787 c -3.191,3.191 -3.191,8.364 0,11.554 l 1.926,1.926 -86.659,86.659 c -3.191,3.191 -3.191,8.364 0,11.554 L 158.52,509.607 c 1.595,1.595 3.686,2.393 5.777,2.393 2.09,0 4.182,-0.797 5.777,-2.393 l 86.659,-86.659 1.926,1.926 c 1.595,1.595 3.686,2.393 5.777,2.393 2.09,0 4.182,-0.797 5.777,-2.393 L 509.607,185.48 c 1.533,-1.532 2.393,-3.61 2.393,-5.777 0,-2.167 -0.861,-4.245 -2.393,-5.777 z m -177.31,-154.201 34.664,34.663 -227.84,227.84 -32.732,-32.732 c -0.011,-0.011 -1.931,-1.931 -1.931,-1.931 z m -168,472.551 -144.572,-144.574 80.881,-80.881 144.572,144.572 z m 100.139,-84.733 -1.921,-1.921 c -0.011,-0.011 -32.743,-32.743 -32.743,-32.743 l 40.44,-40.44 c 3.191,-3.191 3.191,-8.364 0,-11.554 -3.191,-3.191 -8.364,-3.191 -11.554,0 l -40.44,40.44 -67.544,-67.544 227.84,-227.84 67.544,67.544 -164.292,164.29 c -3.191,3.191 -3.191,8.364 0,11.554 1.595,1.596 3.686,2.393 5.777,2.393 2.091,0 4.182,-0.797 5.777,-2.393 l 164.291,-164.29 34.664,34.663 z"
   id="path185" />
	</g>
</g>
<g
   id="g191"
   transform="translate(2.5e-4)">
</g>
<g
   id="g193"
   transform="translate(2.5e-4)">
</g>
<g
   id="g195"
   transform="translate(2.5e-4)">
</g>
<g
   id="g197"
   transform="translate(2.5e-4)">
</g>
<g
   id="g199"
   transform="translate(2.5e-4)">
</g>
<g
   id="g201"
   transform="translate(2.5e-4)">
</g>
<g
   id="g203"
   transform="translate(2.5e-4)">
</g>
<g
   id="g205"
   transform="translate(2.5e-4)">
</g>
<g
   id="g207"
   transform="translate(2.5e-4)">
</g>
<g
   id="g209"
   transform="translate(2.5e-4)">
</g>
<g
   id="g211"
   transform="translate(2.5e-4)">
</g>
<g
   id="g213"
   transform="translate(2.5e-4)">
</g>
<g
   id="g215"
   transform="translate(2.5e-4)">
</g>
<g
   id="g217"
   transform="translate(2.5e-4)">
</g>
<g
   id="g219"
   transform="translate(2.5e-4)">
</g>
</svg>
