<?xml version="1.0" encoding="UTF-8" standalone="no"?>
<svg
   xmlns:dc="http://purl.org/dc/elements/1.1/"
   xmlns:cc="http://creativecommons.org/ns#"
   xmlns:rdf="http://www.w3.org/1999/02/22-rdf-syntax-ns#"
   xmlns:svg="http://www.w3.org/2000/svg"
   xmlns="http://www.w3.org/2000/svg"
   xmlns:sodipodi="http://sodipodi.sourceforge.net/DTD/sodipodi-0.dtd"
   xmlns:inkscape="http://www.inkscape.org/namespaces/inkscape"
   version="1.1"
   id="Capa_1"
   x="0px"
   y="0px"
   viewBox="0 0 35.150044 35.147976"
   xml:space="preserve"
   sodipodi:docname="pen_scaled.svg"
   inkscape:version="1.0 (9f2f71dc58, 2020-08-02)"
   width="35.150043"
   height="35.147976"><metadata
   id="metadata183"><rdf:RDF><cc:Work
       rdf:about=""><dc:format>image/svg+xml</dc:format><dc:type
         rdf:resource="http://purl.org/dc/dcmitype/StillImage" /><dc:title></dc:title></cc:Work></rdf:RDF></metadata><defs
   id="defs181" /><sodipodi:namedview
   pagecolor="#ffffff"
   bordercolor="#666666"
   borderopacity="1"
   objecttolerance="10"
   gridtolerance="10"
   guidetolerance="10"
   inkscape:pageopacity="0"
   inkscape:pageshadow="2"
   inkscape:window-width="959"
   inkscape:window-height="1028"
   id="namedview179"
   showgrid="false"
   inkscape:zoom="2.9412781"
   inkscape:cx="131.05395"
   inkscape:cy="139.92621"
   inkscape:window-x="960"
   inkscape:window-y="25"
   inkscape:window-maximized="0"
   inkscape:current-layer="Capa_1" />
<path
   d="M 34.630885,12.585819 22.564155,0.51908912 c -0.692119,-0.69211883 -1.814383,-0.69211883 -2.506502,0 L 17.167301,3.409441 c -0.68645,0.6864502 -0.691174,1.7954869 -0.01593,2.4888205 L 12.366199,7.9505935 6.9829784,10.259366 0.08594952,30.820208 c -0.04993837,0.148735 -0.07760693,0.30125 -0.08435536,0.453359 -0.00499383,0.114049 0.0017546,0.227962 0.02011032,0.339716 0.03657648,0.223643 0.11877234,0.439053 0.24334833,0.631788 0.0207852,0.03212 0.0426501,0.06357 0.0658647,0.09448 0.0461592,0.06155 0.0970424,0.120392 0.15237951,0.175999 0.0140367,0.01404 0.0291532,0.02632 0.0450795,0.03685 0.005534,0.0036 0.0116073,0.0059 0.017276,0.0092 0.0107975,0.0061 0.02146,0.01269 0.0326624,0.01728 0.006883,0.0028 0.0143067,0.0042 0.021325,0.0065 0.0105276,0.0034 0.0210551,0.0074 0.0318526,0.0094 0.008098,0.0016 0.0163312,0.01916 0.0244293,0.01997 0.0101226,0.0011 0.0202453,0.02052 0.0305029,0.02052 2.6993e-4,0 5.3987e-4,0 8.0981e-4,0 0.0102576,0 0.0203802,-0.0193 0.0305029,-0.02038 0.007693,-8.1e-4 0.0155214,-0.0094 0.0232146,-0.01093 0.0105276,-0.002 0.0207852,-0.01026 0.0310428,-0.0135 0.007288,-0.0023 0.0147116,-0.0058 0.0218649,-0.0086 0.0114723,-0.0046 0.0221348,-0.01215 0.0330673,-0.01836 0.005534,-0.0031 0.0180858,-0.0058 0.0234845,-0.0093 0.0157913,-0.01039 -0.0834106,-0.02281 0.051558,-0.03685 v -1.35e-4 L 11.103434,22.308685 c 0.01471,-0.01471 0.02456,-0.03023 0.03658,-0.04656 0.04805,-0.06546 0.07275,-0.143067 0.07599,-0.222428 0.0016,-0.03968 -0.0035,-0.07977 -0.0139,-0.119043 -0.0051,-0.01957 -0.01228,-0.03901 -0.02052,-0.05804 -0.244563,-0.565114 -0.358071,-1.174092 -0.339176,-1.779156 2.7e-4,-0.0069 0.0011,-0.01363 0.0012,-0.02038 0.0065,-0.180588 0.02537,-0.360636 0.05547,-0.5392 0.02416,-0.143336 0.05682,-0.285323 0.0961,-0.42596 0.183422,-0.655543 0.529886,-1.274374 1.044791,-1.789414 0.0089,-0.0089 0.01836,-0.01714 0.0274,-0.02605 0.0413,-0.04049 0.08274,-0.08071 0.125251,-0.119177 0.01782,-0.01606 0.03631,-0.03091 0.05426,-0.04656 0.03442,-0.0301 0.0687,-0.06047 0.103926,-0.08908 0.02052,-0.01674 0.04171,-0.03212 0.06249,-0.04845 0.03347,-0.02632 0.06681,-0.05304 0.100957,-0.07801 0.02119,-0.01552 0.04292,-0.02983 0.06438,-0.04481 0.03442,-0.02429 0.0687,-0.04899 0.103656,-0.07207 0.02241,-0.01485 0.04548,-0.02834 0.06816,-0.04265 0.03469,-0.02187 0.06924,-0.0444 0.104466,-0.06505 0.02187,-0.01296 0.04427,-0.02457 0.06627,-0.03698 0.03671,-0.02079 0.07315,-0.04184 0.110404,-0.06141 0.02187,-0.01147 0.04427,-0.02173 0.0664,-0.03293 0.03779,-0.01903 0.07545,-0.03833 0.113644,-0.05601 0.02362,-0.01093 0.04751,-0.02065 0.07126,-0.03104 0.03725,-0.01647 0.07437,-0.0332 0.112024,-0.04845 0.02456,-0.01 0.04953,-0.01863 0.07437,-0.02807 0.03739,-0.01431 0.0745,-0.02902 0.112158,-0.04224 0.02551,-0.0089 0.05142,-0.0166 0.0772,-0.02497 0.03712,-0.01215 0.0741,-0.0247 0.111485,-0.03577 0.02726,-0.0081 0.0548,-0.01485 0.0822,-0.02227 0.03631,-0.0099 0.07234,-0.02038 0.108785,-0.02929 0.02821,-0.0069 0.05669,-0.01242 0.08503,-0.01876 0.0359,-0.008 0.0718,-0.01647 0.10784,-0.02349 0.02915,-0.0057 0.05858,-0.01 0.08786,-0.01498 0.0355,-0.0061 0.07099,-0.01269 0.106625,-0.01795 0.02996,-0.0043 0.06006,-0.0074 0.09002,-0.01107 0.03509,-0.0043 0.07018,-0.0092 0.10541,-0.01255 0.03064,-0.003 0.06128,-0.0046 0.09191,-0.0069 0.03482,-0.0026 0.06951,-0.0057 0.104196,-0.0074 0.03104,-0.0015 0.06222,-0.0018 0.0934,-0.0026 0.03442,-9.45e-4 0.06897,-0.0024 0.103386,-0.0024 0.03307,0 0.06613,0.0012 0.0992,0.0019 0.03226,6.75e-4 0.06438,8.1e-4 0.0965,0.0023 0.03334,0.0015 0.06668,0.0043 0.09988,0.0067 0.03185,0.0022 0.06371,0.0038 0.09542,0.0067 0.03374,0.0031 0.06721,0.0076 0.100821,0.01161 0.03131,0.0036 0.06276,0.0067 0.09394,0.01107 0.03401,0.0047 0.06789,0.01093 0.101902,0.0166 0.03064,0.005 0.06128,0.0094 0.09178,0.01525 0.03509,0.0066 0.06991,0.01471 0.104736,0.02213 0.02915,0.0062 0.05831,0.01188 0.08732,0.01876 0.0359,0.0085 0.0714,0.01849 0.10703,0.02807 0.0278,0.0074 0.05574,0.01404 0.08355,0.02213 0.03617,0.01053 0.07207,0.0224 0.10811,0.03388 0.02686,0.0085 0.05372,0.01633 0.08044,0.02537 0.03685,0.01255 0.07315,0.02672 0.10973,0.04035 0.02537,0.0094 0.05102,0.01822 0.07626,0.02821 0.03712,0.01471 0.07383,0.03104 0.110674,0.04683 0.02416,0.01039 0.04859,0.01997 0.07261,0.03091 0.03617,0.01633 0.0718,0.03428 0.10757,0.05169 0.02416,0.01188 0.04872,0.02281 0.07275,0.03523 0.03563,0.01822 0.07059,0.03806 0.105816,0.05736 0.02362,0.01296 0.04737,0.0251 0.07086,0.0386 0.0359,0.02065 0.07099,0.04292 0.106355,0.06465 0.022,0.01363 0.04441,0.02645 0.06627,0.04049 0.03496,0.02254 0.0691,0.04656 0.103521,0.07018 0.0216,0.01485 0.04359,0.02888 0.06492,0.04414 0.03253,0.02322 0.06411,0.04805 0.0961,0.07234 0.02254,0.01714 0.04562,0.03347 0.06789,0.05129 0.0301,0.02389 0.05939,0.0494 0.08908,0.07437 0.02321,0.01957 0.04697,0.0382 0.06978,0.05831 0.03793,0.03334 0.07491,0.06829 0.111889,0.103251 0.01377,0.01296 0.02794,0.0251 0.04157,0.03833 0.244428,0.251852 0.45066,0.527593 0.618561,0.81953 0.03361,0.05844 0.0656,0.117422 0.0961,0.177078 0.213656,0.417323 0.351998,0.863664 0.414894,1.318373 0.02699,0.194895 0.04009,0.391274 0.03941,0.587519 -5.4e-4,0.130919 -0.0072,0.261704 -0.01998,0.392083 -0.0065,0.06519 -0.01444,0.130245 -0.02389,0.19503 -0.01728,0.117962 -0.04036,0.23525 -0.06789,0.351593 -0.03874,0.163717 -0.088,0.325274 -0.146981,0.483997 -0.03739,0.100552 -0.07774,0.200294 -0.123226,0.298416 -0.0382,0.08206 -0.08017,0.162637 -0.124037,0.242538 -0.182207,0.331888 -0.412598,0.644205 -0.693738,0.92521 -1.35e-4,1.35e-4 -1.35e-4,1.35e-4 -1.35e-4,1.35e-4 -0.06978,0.06978 -0.141987,0.135238 -0.21514,0.198808 -0.01674,0.01458 -0.03347,0.02902 -0.05048,0.04333 -0.07275,0.06114 -0.146846,0.119852 -0.222698,0.175055 -0.01039,0.0076 -0.02119,0.01458 -0.03172,0.022 -0.06937,0.04953 -0.140097,0.09623 -0.211631,0.140908 -0.01687,0.01053 -0.03347,0.02119 -0.05048,0.03145 -0.07896,0.04751 -0.158993,0.09232 -0.240244,0.134024 -0.01633,0.0084 -0.0328,0.01606 -0.04926,0.02429 -0.07342,0.03644 -0.147791,0.07072 -0.222834,0.102577 -0.01417,0.0059 -0.02807,0.01255 -0.04224,0.01835 -0.08409,0.03455 -0.169115,0.06573 -0.254955,0.09434 -0.01957,0.0066 -0.03928,0.01269 -0.05898,0.0189 -0.0826,0.02618 -0.165741,0.05048 -0.249421,0.0714 -0.0062,0.0016 -0.01242,0.0035 -0.01863,0.005 -0.08868,0.02173 -0.178024,0.03941 -0.267643,0.0552 -0.02065,0.0036 -0.04143,0.0072 -0.06208,0.01039 -0.08962,0.01431 -0.179509,0.02645 -0.269803,0.03482 -0.0081,8.1e-4 -0.01606,0.0011 -0.02416,0.0018 -0.08463,0.0074 -0.169385,0.01161 -0.254281,0.01377 -0.01984,5.4e-4 -0.03968,0.0012 -0.05952,0.0014 -0.09259,0.0011 -0.185312,-4.05e-4 -0.277765,-0.0055 -0.01066,-5.4e-4 -0.02132,-0.0019 -0.03185,-0.0026 -0.08166,-0.0051 -0.163177,-0.01309 -0.244563,-0.02308 -0.02618,-0.0032 -0.05237,-0.0069 -0.07855,-0.01053 -0.07423,-0.01053 -0.148331,-0.02308 -0.222024,-0.03766 -0.01836,-0.0036 -0.03685,-0.0066 -0.0552,-0.01039 -0.08975,-0.01903 -0.179103,-0.04117 -0.267643,-0.06627 -0.02133,-0.0061 -0.04238,-0.01296 -0.06357,-0.0193 -0.06991,-0.02092 -0.139287,-0.04373 -0.208256,-0.06843 -0.0247,-0.0089 -0.04953,-0.01768 -0.0741,-0.02699 -0.08719,-0.03307 -0.173705,-0.06816 -0.259005,-0.107435 -0.02429,-0.0112 -0.0494,-0.0189 -0.07477,-0.02497 -0.007,-0.0018 -0.0139,-0.003 -0.02105,-0.0043 -0.02079,-0.0039 -0.04171,-0.0061 -0.06263,-0.0067 -0.0038,-1.35e-4 -0.0074,-0.0012 -0.0112,-0.0012 -0.0015,0 -0.003,4.04e-4 -0.0043,4.04e-4 -0.02362,2.7e-4 -0.0471,0.0024 -0.07032,0.0069 -0.005,9.45e-4 -0.0097,0.0026 -0.01471,0.0038 -0.01822,0.0042 -0.03617,0.0094 -0.05372,0.01606 -0.0073,0.0027 -0.01417,0.0059 -0.02132,0.009 -0.01552,0.007 -0.03064,0.01498 -0.04535,0.02402 -0.0062,0.0038 -0.01255,0.0073 -0.01863,0.01147 -0.01997,0.01377 -0.03914,0.02875 -0.05669,0.04643 L 2.5238868,34.152447 c -0.04184,0.04184 -0.067889,0.0934 -0.078417,0.147251 -0.00351,0.01795 -0.00526,0.03631 -0.00526,0.05453 0,0.0548 0.015656,0.109594 0.046969,0.156968 0.010393,0.01579 0.022675,0.03091 0.036577,0.04481 l 0.107165,0.107165 c 0.035227,0.03523 0.072208,0.06789 0.1099994,0.09947 0.010393,0.0086 0.02092,0.01701 0.031448,0.02537 0.031583,0.0251 0.063975,0.04899 0.097177,0.07167 0.00783,0.0053 0.015252,0.01093 0.023215,0.0162 0.040356,0.02645 0.081656,0.05088 0.1239012,0.07369 0.010123,0.0054 0.02038,0.01039 0.030638,0.01552 0.034417,0.01755 0.069239,0.03401 0.1047357,0.04913 0.011337,0.0049 0.022675,0.0099 0.034147,0.01444 0.04427,0.01782 0.089214,0.03401 0.1348336,0.04778 0.00621,0.0019 0.012552,0.0032 0.018896,0.0051 0.040221,0.01174 0.080981,0.02173 0.1220116,0.03023 0.012822,0.0027 0.025779,0.0053 0.038736,0.0077 0.041975,0.0078 0.08422,0.01417 0.1266005,0.01863 0.00567,5.4e-4 0.011202,0.0016 0.016736,0.0022 0.047509,0.0046 0.095288,0.0066 0.1432016,0.007 0.00499,0 0.00985,6.75e-4 0.014847,6.75e-4 0.00999,0 0.02011,-0.0011 0.030233,-0.0012 0.026049,-5.4e-4 0.051963,-0.0015 0.078012,-0.0031 0.016466,-0.0011 0.032797,-0.0024 0.049264,-0.0039 0.026049,-0.0024 0.051963,-0.0058 0.077877,-0.0094 0.015926,-0.0023 0.031853,-0.0045 0.047779,-0.0073 0.027804,-0.0049 0.055472,-0.0108 0.083141,-0.01714 0.013767,-0.0031 0.027399,-0.0057 0.041165,-0.0092 0.040625,-0.01026 0.081116,-0.022 0.1212018,-0.0355 4.049e-4,-1.35e-4 9.448e-4,-2.7e-4 0.00135,-4.05e-4 l 15.3351278,-5.183063 5.183063,-1.751757 4.360565,-10.167182 0.02375,0.02375 c 0.692119,0.692119 1.814383,0.692119 2.506502,0 l 2.890352,-2.890352 c 0.691578,-0.691983 0.691578,-1.814247 -5.4e-4,-2.506366 z"
   id="path146"
   style="stroke-width:0.134969" />
<g
   id="g148"
   transform="translate(-1.8864179e-4,-0.007)">
</g>
<g
   id="g150"
   transform="translate(-1.8864179e-4,-0.007)">
</g>
<g
   id="g152"
   transform="translate(-1.8864179e-4,-0.007)">
</g>
<g
   id="g154"
   transform="translate(-1.8864179e-4,-0.007)">
</g>
<g
   id="g156"
   transform="translate(-1.8864179e-4,-0.007)">
</g>
<g
   id="g158"
   transform="translate(-1.8864179e-4,-0.007)">
</g>
<g
   id="g160"
   transform="translate(-1.8864179e-4,-0.007)">
</g>
<g
   id="g162"
   transform="translate(-1.8864179e-4,-0.007)">
</g>
<g
   id="g164"
   transform="translate(-1.8864179e-4,-0.007)">
</g>
<g
   id="g166"
   transform="translate(-1.8864179e-4,-0.007)">
</g>
<g
   id="g168"
   transform="translate(-1.8864179e-4,-0.007)">
</g>
<g
   id="g170"
   transform="translate(-1.8864179e-4,-0.007)">
</g>
<g
   id="g172"
   transform="translate(-1.8864179e-4,-0.007)">
</g>
<g
   id="g174"
   transform="translate(-1.8864179e-4,-0.007)">
</g>
<g
   id="g176"
   transform="translate(-1.8864179e-4,-0.007)">
</g>
</svg>
